<svg xmlns="http://www.w3.org/2000/svg" viewBox="0 0 32 32" width="32" height="32" fill="none">
  <defs>
    <linearGradient id="aaveGrad" x1="0" y1="0" x2="32" y2="32" gradientUnits="userSpaceOnUse">
      <stop offset="0%" stop-color="#b6509e"/>
      <stop offset="100%" stop-color="#2ebac6"/>
    </linearGradient>
  </defs>
  <path d="M16 2C9.37 2 4 7.37 4 14v11.5c0 .83.67 1.5 1.5 1.5.41 0 .78-.17 1.06-.44L9 24l2.44 2.56c.28.27.65.44 1.06.44s.78-.17 1.06-.44L16 24l2.44 2.56c.28.27.65.44 1.06.44s.78-.17 1.06-.44L23 24l2.44 2.56c.28.27.65.44 1.06.44.83 0 1.5-.67 1.5-1.5V14C28 7.37 22.63 2 16 2z" fill="url(#aaveGrad)"/>
  <circle cx="12" cy="14" r="2" fill="#fff"/>
  <circle cx="20" cy="14" r="2" fill="#fff"/>
</svg>